<?xml version="1.0" standalone="no"?>
<!DOCTYPE svg PUBLIC "-//W3C//DTD SVG 20010904//EN"
 "http://www.w3.org/TR/2001/REC-SVG-20010904/DTD/svg10.dtd">
<svg version="1.0" xmlns="http://www.w3.org/2000/svg"
 width="640.000000pt" height="640.000000pt" viewBox="0 0 640.000000 640.000000"
 preserveAspectRatio="xMidYMid meet">
<metadata>
Created by potrace 1.11, written by Peter Selinger 2001-2013
</metadata>
<g transform="translate(0.000000,640.000000) scale(0.100000,-0.100000)"
fill="#000000" stroke="none">
<path d="M2989 6390 c-1308 -89 -2421 -956 -2830 -2204 -102 -311 -151 -630
-151 -981 0 -521 100 -954 327 -1420 217 -445 545 -841 946 -1142 972 -729
2279 -843 3364 -293 978 496 1619 1432 1735 2535 15 142 15 500 1 635 -46 412
-150 765 -331 1125 -490 970 -1446 1627 -2525 1734 -153 15 -396 20 -536 11z
m636 -220 c793 -119 1480 -524 1964 -1160 310 -407 500 -863 584 -1400 28
-182 30 -590 4 -785 -72 -531 -271 -1016 -588 -1435 -517 -682 -1278 -1101
-2139 -1179 -546 -50 -1145 71 -1639 331 -1025 539 -1646 1605 -1608 2758 48
1429 1094 2623 2507 2859 202 34 291 40 540 36 171 -3 273 -10 375 -25z"/>
<path d="M1675 4981 c-43 -26 -66 -56 -74 -93 l-7 -33 -174 -5 c-190 -5 -208
-10 -240 -63 -24 -38 -26 -116 -6 -156 31 -59 54 -66 246 -71 l175 -5 3 -67 3
-68 -35 0 c-110 0 -240 -56 -316 -136 -120 -127 -150 -312 -81 -496 45 -117
172 -214 315 -239 103 -17 336 -7 408 19 130 47 254 159 314 286 20 41 48 125
62 185 l27 111 70 0 c86 0 131 -21 162 -76 40 -69 28 -182 -24 -237 -41 -43
-76 -57 -138 -57 -105 0 -156 -38 -163 -123 -9 -112 33 -147 178 -147 202 0
320 63 395 211 133 262 60 543 -168 649 -90 42 -161 50 -464 50 l-273 0 0 70
0 70 414 0 c413 0 413 0 447 23 89 59 89 185 0 244 -34 23 -34 23 -447 23
l-413 0 -10 38 c-14 51 -34 76 -75 96 -44 21 -74 20 -111 -3z m-77 -998 l2
-163 -46 0 c-146 0 -180 243 -44 313 19 9 46 16 60 15 l25 -3 3 -162z m422
143 c0 -70 -63 -207 -119 -260 l-31 -30 0 157 0 157 75 0 c73 0 75 -1 75 -24z"/>
<path d="M3673 4950 c-24 -11 -51 -33 -63 -52 -20 -32 -21 -44 -17 -448 3
-392 4 -419 25 -495 48 -175 145 -306 271 -367 64 -32 70 -33 216 -36 144 -3
151 -3 185 20 68 45 88 133 50 209 -29 56 -71 79 -146 79 -124 0 -202 46 -253
147 -34 67 -41 156 -41 518 0 382 1 375 -77 422 -46 28 -94 29 -150 3z"/>
<path d="M4506 4927 c-116 -66 -95 -243 33 -286 19 -6 62 -11 95 -11 78 0 139
-29 183 -88 60 -80 65 -113 72 -472 7 -365 6 -362 81 -400 75 -38 162 -17 208
51 l23 34 -3 355 c-4 326 -6 361 -26 433 -43 157 -138 295 -242 351 -78 43
-142 56 -270 56 -101 0 -120 -3 -154 -23z"/>
<path d="M1914 2581 c-52 -24 -82 -66 -90 -125 l-7 -46 -236 0 c-141 0 -252
-5 -276 -11 -51 -14 -110 -73 -124 -124 -17 -61 -15 -517 3 -559 37 -88 164
-119 245 -58 48 35 56 65 61 240 4 147 7 165 24 178 16 12 97 14 468 14 418 0
448 -1 457 -18 10 -19 -8 -216 -30 -320 -25 -122 -81 -209 -168 -260 -43 -25
-56 -27 -191 -32 -166 -6 -195 -17 -224 -90 -32 -80 -11 -153 55 -197 38 -25
40 -25 221 -21 181 3 184 3 248 34 171 81 288 236 354 466 24 84 86 527 86
615 0 49 -32 99 -80 124 -31 17 -61 19 -302 19 l-268 0 0 30 c0 114 -122 190
-226 141z"/>
<path d="M3702 2510 c-46 -28 -72 -76 -72 -133 0 -54 16 -90 55 -127 l27 -25
259 -3 259 -3 0 -379 0 -380 -247 0 c-230 0 -250 -2 -281 -20 -97 -60 -97
-210 0 -270 32 -20 48 -20 698 -18 647 3 666 4 692 23 84 63 82 209 -4 265
-18 12 -75 16 -278 20 l-255 5 0 375 0 375 248 2 c218 2 251 4 278 20 47 28
72 76 71 138 0 66 -22 106 -72 134 -37 21 -46 21 -691 21 -635 0 -655 -1 -687
-20z"/>
</g>
</svg>
